<?xml version="1.0" encoding="UTF-8"?>
<svg id="Layer_2" data-name="Layer 2" xmlns="http://www.w3.org/2000/svg" viewBox="0 0 709.7 709.7">
  <defs>
    <style>
      .cls-1 {
        fill: #fff;
      }

      .cls-2 {
        fill: #171717;
      }

      .cls-3 {
        fill: #005bff;
      }
    </style>
  </defs>
  <g id="Layer_1-2" data-name="Layer 1">
    <g>
      <rect class="cls-2" x="0" y="0" width="709.7" height="709.7" rx="2.43" ry="2.43"/>
      <path class="cls-3" d="M289.95,166.65v.11c-18.34,21.37-39.48,38.58-63.33,51.18-23.62,12.6-49.83,20.47-77.62,23.73h-.34c-5.29.56-10.35-2.14-12.82-6.86l-28.57-53.54h-12.48l.11,1.8,2.25,31.27,1.8-.11c1.13-.23,2.25.56,2.48,1.8l3.71,19.12c.11.56,0,1.12-.34,1.69-.34.45-.9.79-1.46.9l-2.92.23-14.74,1.01c-.56,0-1.12-.23-1.57-.67-.45-.45-.67-1.01-.56-1.57.11-3.82.23-7.65.45-11.47l.34-7.99c0-1.24,1.01-2.14,2.25-2.14l1.69-.11-2.47-33.86-6.53-.23c-3.94-.45-7.31-3.37-9.22-6.97-2.36-4.5-2.36-10.46.79-14.29l73-83.46c2.59-3.71,6.86-6.07,11.36-6.07l110.35-13.95c4.72-.34,9.9,2.81,12.26,7.42,2.47,4.5,2.14,10.01-.68,14.29l-14.06,20.58,4.16,7.87c13.16,24.86,8.77,16.42,24.3,45.78,2.47,4.72,1.91,10.46-1.57,14.51Z"/>
      <path class="cls-1" d="M557.43,400.86c4.72,116.42-86.95,213.84-195.84,217.44-115.52,3.71-217.55-99.21-209-223.73v-143.98c28.8-3.37,55.79-11.7,80.32-24.75,23.17-12.26,44.09-28.68,62.32-48.93v244.88c0,3.82.34,7.65,1.12,11.36l.34,1.57c1.69,8.44,5.4,16.54,11.14,22.95,9.79,11.02,21.6,16.09,30.93,18.45,7.43,1.8,14.51-3.94,14.51-11.59v-67.94c0-9.11,9.9-14.74,17.77-10.24l114.62,62.54c8.55,3.82,24.18-10.35,25.2-19.69v-.23c.45-4.5-1.8-8.77-5.62-11.14-48.26-30.15-96.51-60.29-144.77-90.44-3.49-2.14-5.62-5.85-5.62-10.01v-140.49c0-6.52,5.29-11.81,11.81-11.81h178.63c6.52,0,11.81,5.29,11.81,11.81v145.78c0,8.1-7.87,13.39-14.96,11.36l-8.77-4.84-123.4-68.05c-4.72-2.59-10.35.79-10.35,6.07v24.07c0,4.16,2.14,7.99,5.62,10.24l146.46,89.76c3.38,2.02,5.51,5.62,5.74,9.56Z"/>
    </g>
  </g>
</svg>